<?xml version="1.0" encoding="UTF-8"?>
<svg id="Layer_1" data-name="Layer 1" xmlns="http://www.w3.org/2000/svg" viewBox="0 0 1637.35 494.73">
  <defs>
    <style>
      .cls-1 {
        fill: #231f20;
        stroke-width: 0px;
      }
    </style>
  </defs>
  <path class="cls-1" d="m244.09,2.35C109.29,2.35,0,111.64,0,246.3s109.29,244.09,244.09,244.09,243.96-109.29,243.96-244.09S378.76,2.35,244.09,2.35Zm59.38,339.81c-42.51,0-82.28-21.26-106.14-56.5l-91.05-135.08h146.45l129.04,191.57h-78.3,0Z"/>
  <g>
    <path class="cls-1" d="m919.62,489.71h-94.48c-43.88,0-84.88-22.22-109.29-59.1l-81.73-123.01v182.11h-150.98V6.88h150.98v227.77l-24.41,36.2h164.69l145.22,218.86h0Z"/>
    <path class="cls-1" d="m817.36,143.03c0,35.79-28.93,64.86-64.73,64.86s-64.86-29.07-64.86-64.86c0-7.54,1.23-14.67,3.7-21.39,3.7-10.7,10.15-20.16,18.38-27.29,11.38-10.15,26.33-16.18,42.79-16.18,35.79,0,64.73,29.07,64.73,64.86h-.01Z"/>
  </g>
  <g>
    <circle class="cls-1" cx="1148.24" cy="64.84" r="64.84"/>
    <path class="cls-1" d="m1070.6,5.37v484.34h-150.98V134.41h-36.89c-52.52,0-98.19-35.93-110.39-86.94l-10.15-42.1s308.41,0,308.41,0Z"/>
  </g>
  <path class="cls-1" d="m1393.39,6.68c-134.8,0-244.09,109.29-244.09,243.96s109.29,244.09,244.09,244.09,243.96-109.29,243.96-244.09S1528.05,6.68,1393.39,6.68Zm59.38,339.81c-42.51,0-82.28-21.26-106.14-56.5l-91.05-135.07h146.46l129.04,191.57h-78.31Z"/>
</svg>
